<svg xmlns="http://www.w3.org/2000/svg" style="overflow: visible;" data-svgdocument="" id="_ulBRnfcOj3VyDQUqUOEKd" class="fl-svgdocument" x="0" y="0" overflow="hidden" data-bbox="98.36056049281285 48 310.9203745292225 346.09112947312644" viewBox="102.89 48 302.42 233.45">
	<defs id="_FS__db40CzrMADV5NKuuW" transform="matrix(1.8825600147247314, 0, 0, 1.8825600147247314, -26.246084213256836, 8.186790466308594)" data-uid="o_f20cn30kn_7">
		<linearGradient id="o_f20cn30kn_3" x1="0" y1="0.5" x2="1" y2="0.5" data-uid="o_f20cn30kn_8">
			<stop id="_Uf-Qhgm0orNVLQFkSeLAv" offset="0%" stop-color="rgb(0, 136, 255)" stop-opacity="0.55" data-uid="o_f20cn30kn_9" data-darkreader-inline-stopcolor="" style="--darkreader-inline-stopcolor:#006dcc;">
			</stop>
			<stop id="_7xsj3EiEHsXRJ-gMIEYK9" offset="100%" stop-color="rgb(0, 136, 255)" stop-opacity="0.55" data-uid="o_f20cn30kn_10" data-darkreader-inline-stopcolor="" style="--darkreader-inline-stopcolor:#006dcc;">
			</stop>
		</linearGradient>
		<linearGradient id="o_f20cn30kn_4" x1="0" y1="0.5" x2="1" y2="0.5" data-uid="o_f20cn30kn_11">
			<stop id="_Eqn2leSTavmwOdUcS5xzu" offset="0%" stop-color="rgb(28, 158, 117)" stop-opacity="0.57" data-uid="o_f20cn30kn_12" data-darkreader-inline-stopcolor="" style="--darkreader-inline-stopcolor:#167e5e;">
			</stop>
			<stop id="_j6kfcS4pun-P6NaI_RbGY" offset="100%" stop-color="rgb(28, 158, 117)" stop-opacity="0.57" data-uid="o_f20cn30kn_13" data-darkreader-inline-stopcolor="" style="--darkreader-inline-stopcolor:#167e5e;">
			</stop>
		</linearGradient>
		<linearGradient id="o_f20cn30kn_5" x1="0" y1="0.5" x2="1" y2="0.5" data-uid="o_f20cn30kn_14">
			<stop id="_504xnfF9aJ8B3Zmo2TlcK" offset="0%" stop-color="rgb(95, 184, 57)" stop-opacity="0.65" data-uid="o_f20cn30kn_15" data-darkreader-inline-stopcolor="" style="--darkreader-inline-stopcolor:#4c932e;">
			</stop>
			<stop id="_OBCZye785zlBm9IH2IMZo" offset="100%" stop-color="rgb(95, 184, 57)" stop-opacity="0.65" data-uid="o_f20cn30kn_16" data-darkreader-inline-stopcolor="" style="--darkreader-inline-stopcolor:#4c932e;">
			</stop>
		</linearGradient>
	</defs>
	<path id="_Wwk3iq3G0ezD5GoNqFBJV" fill="#2c9e1c" transform="matrix(4.151421070098877, 0, 0, 4.151421070098877, 140.45826721191406, -107.07892608642578)" data-type="polygon" d="M15.089 79.531L31.327 79.531L39.445 65.469L31.327 51.406L15.089 51.406L6.97 65.469Z" data-uid="o_f20cn30kn_17" data-darkreader-inline-fill="" style="--darkreader-inline-fill:#237e16;">
	</path>
	<path id="_0Su4OwRjujkSFmNRpIXq7" fill="#0088ff" transform="matrix(4.151421070098877, 0, 0, 4.151421070098877, -37.27027893066406, -42.80298614501953)" data-type="polygon" d="M33.762 50L41.881 64.063L58.119 64.063L66.238 50L58.119 35.938L41.881 35.938Z" data-uid="o_f20cn30kn_18" data-darkreader-inline-fill="" style="--darkreader-inline-fill:#006dcc;">
	</path>
	<path id="_wIBIpgORDj0vjaTbXIjdQ" fill="#1c9e75" transform="matrix(4.151421070098877, 0, 0, 4.151421070098877, 207.40774536132812, 20.788646697998047)" data-type="polygon" d="M15.089 20.469L6.97 34.531L15.089 48.594L31.327 48.594L39.445 34.531L31.327 20.469Z" data-uid="o_f20cn30kn_19" data-darkreader-inline-fill="" style="--darkreader-inline-fill:#167e5e;">
	</path>
	<path id="_rqERDTKphf1ItlaxsFDHs" fill="url(#o_f20cn30kn_3)" transform="matrix(4.151421070098877, 0, 0, 4.151421070098877, -48.36708068847656, 79.65742492675781)" data-type="polygon" d="M84.911 20.469L68.673 20.469L60.555 34.531L68.673 48.594L84.911 48.594L93.03 34.531Z" data-uid="o_f20cn30kn_20">
	</path>
	<path id="_K8JfXVSBjM6xQeBzSqNNK" fill="url(#o_f20cn30kn_4)" transform="matrix(4.151421070098877, 0, 0, 4.151421070098877, 130.33026123046875, 143.93788146972656)" data-type="polygon" d="M58.119 5L41.881 5L33.762 19.063L41.881 33.125L58.119 33.125L66.238 19.063Z" data-uid="o_f20cn30kn_21">
	</path>
	<path id="_pkpd5opzEyxxECyPV-sej" fill="url(#o_f20cn30kn_5)" transform="matrix(4.151421070098877, 0, 0, 4.151421070098877, -3.520883560180664, -229.6262969970703)" data-type="polygon" d="M58.119 66.875L41.881 66.875L33.762 80.938L41.881 95L58.119 95L66.238 80.938Z" data-uid="o_f20cn30kn_22">
	</path>
</svg>