<?xml version="1.0" encoding="utf-8"?>
<!DOCTYPE svg PUBLIC "-//W3C//DTD SVG 20010904//EN" "http://www.w3.org/TR/2001/REC-SVG-20010904/DTD/svg10.dtd">
<svg version="1.0" xmlns="http://www.w3.org/2000/svg" width="2081px" height="1920px" viewBox="0 0 2081 1920" preserveAspectRatio="xMidYMid meet">
 <g fill="#7510f7">
  <path d="M513.5 1918.9 c-192.1 -10.9 -363.8 -122.5 -452.5 -294.2 -32.6 -63.2 -50.9 -125.9 -58.7 -201.7 -1.7 -16.6 -1.8 -40.9 -1.8 -465.5 0 -421 0.1 -449.1 1.8 -465.5 8.8 -87.3 33.1 -161.7 76.5 -234 34.7 -57.9 84.7 -113.1 140 -154.7 68.8 -51.7 151.3 -86.8 236.4 -100.8 l15.2 -2.5 571.1 0 571.1 0 15.2 2.5 c85.1 14 167.6 49.1 236.4 100.8 39.5 29.7 80 70.1 108.9 108.7 60.1 80.2 97 174.4 106.9 272.9 1.3 13.1 1.3 849.6 0 868.6 -3 43.8 -20 80.5 -55.7 120.1 -26.5 29.4 -75.2 63.1 -109.3 75.6 -57.5 21.1 -119.8 33.4 -186 36.8 -40.5 2.1 -99.3 0.9 -133.5 -2.5 -67.2 -6.9 -141.8 -26.3 -178 -46.5 -74.1 -41.3 -121.9 -97.7 -135.6 -159.7 -2 -9.1 -2.2 -13.7 -2.9 -67.3 -0.4 -31.6 -0.8 -109.8 -0.9 -173.7 l-0.1 -116.3 -233.5 0 -233.5 0 0 187 c0 125.4 -0.4 190.3 -1.1 196.8 -2.9 27 -11.1 50.2 -23.3 66 -17.6 22.9 -43.4 36.7 -73.2 39.1 -26.9 2.1 -50.4 -3.3 -69.3 -15.9 -23.7 -15.9 -38.8 -41.1 -44.6 -74.7 -3.5 -20.2 -3.6 -29 -3.3 -468.8 0.3 -410.5 0.4 -434.6 2.1 -444.5 7.5 -44 24.6 -70.5 55.4 -86 15.9 -8 38.4 -11.7 60 -9.9 25.2 2 45.7 10.9 63.2 27.5 16 15 26.3 36.4 31.9 65.9 1.5 8.2 1.7 24.1 1.9 175.3 l0.4 166.2 233.4 0 233.5 0 0 -156.7 c0 -95.2 0.4 -161.3 1 -168.3 3.3 -38.5 14.5 -65.4 35.2 -84.5 16.4 -15.2 35.9 -23.5 60.1 -25.4 55.5 -4.5 97.5 23.8 112.2 75.5 6.2 22.2 5.7 -11.7 6.5 409.9 0.7 354 0.9 384.6 2.5 392 3.4 16.4 10 28 23.5 41.6 22.1 22.4 54.4 35.6 104 42.6 18.4 2.6 84.4 2.6 104.5 0 68.7 -8.9 112.1 -31.1 130 -66.8 6.9 -13.6 6.3 22.5 6.6 -403.4 0.4 -428.6 0.9 -393.4 -6.1 -427.5 -12.1 -58.9 -41.6 -114.9 -84 -159.3 -54.1 -56.7 -126.8 -91.5 -206 -98.7 -15.9 -1.4 -1034.7 -1.4 -1051.5 0 -66.6 5.7 -129 31.4 -180.5 74.3 -12.4 10.3 -34.3 32.6 -44.4 45.2 -42.7 53.3 -67.2 116.3 -71.6 184.5 -1.6 24.7 -0.8 879.4 0.8 891 5 34.9 10.5 57 20.9 83.5 29.5 74.7 84.4 135.2 155.8 171.5 32.7 16.7 65.5 26.9 105.5 32.7 10.7 1.6 59.3 1.7 694.8 2 l683.2 0.3 0 110 0 110 -676.7 -0.1 c-372.3 -0.1 -683.1 -0.6 -690.8 -1z"/>
 </g>
</svg>